<?xml version="1.0" standalone="no"?><svg xmlns="http://www.w3.org/2000/svg" viewBox="0 0 1440 320"><path fill="#efc3e6" fill-opacity="1" d="M0,128L17.1,128C34.3,128,69,128,103,122.7C137.1,117,171,107,206,96C240,85,274,75,309,64C342.9,53,377,43,411,74.7C445.7,107,480,181,514,186.7C548.6,192,583,128,617,101.3C651.4,75,686,85,720,122.7C754.3,160,789,224,823,213.3C857.1,203,891,117,926,90.7C960,64,994,96,1029,101.3C1062.9,107,1097,85,1131,101.3C1165.7,117,1200,171,1234,165.3C1268.6,160,1303,96,1337,80C1371.4,64,1406,96,1423,112L1440,128L1440,0L1422.9,0C1405.7,0,1371,0,1337,0C1302.9,0,1269,0,1234,0C1200,0,1166,0,1131,0C1097.1,0,1063,0,1029,0C994.3,0,960,0,926,0C891.4,0,857,0,823,0C788.6,0,754,0,720,0C685.7,0,651,0,617,0C582.9,0,549,0,514,0C480,0,446,0,411,0C377.1,0,343,0,309,0C274.3,0,240,0,206,0C171.4,0,137,0,103,0C68.6,0,34,0,17,0L0,0Z"></path></svg>